  <svg width="24" height="23" viewBox="0 0 24 23" fill="none" xmlns="http://www.w3.org/2000/svg">
    <path d="M14.9511 0C15.7275 0 16.449 0.40029 16.86 1.05901L18.3811 3.49695H20.75C22.5449 3.49695 24 4.95203 24 6.74695V19.247C24 21.0419 22.5449 22.497 20.75 22.497H3.25C1.45507 22.497 0 21.0419 0 19.247V6.74695C0 4.95203 1.45507 3.49695 3.25 3.49695H5.81851L7.20109 1.11906C7.6039 0.426256 8.34481 0 9.1462 0H14.9511ZM14.9511 1.5H9.1462C8.91723 1.5 8.70307 1.60439 8.562 1.77964L8.49783 1.87302L6.89837 4.62393C6.7641 4.85487 6.51713 4.99695 6.25 4.99695H3.25C2.2835 4.99695 1.5 5.78045 1.5 6.74695V19.247C1.5 20.2134 2.2835 20.997 3.25 20.997H20.75C21.7165 20.997 22.5 20.2134 22.5 19.247V6.74695C22.5 5.78045 21.7165 4.99695 20.75 4.99695H17.965C17.7062 4.99695 17.4657 4.86352 17.3287 4.64395L15.5874 1.853C15.4504 1.63343 15.2099 1.5 14.9511 1.5ZM12 6.99794C15.0376 6.99794 17.5 9.46038 17.5 12.4979C17.5 15.5355 15.0376 17.9979 12 17.9979C8.96243 17.9979 6.5 15.5355 6.5 12.4979C6.5 9.46038 8.96243 6.99794 12 6.99794ZM12 8.49794C9.79086 8.49794 8 10.2888 8 12.4979C8 14.7071 9.79086 16.4979 12 16.4979C14.2091 16.4979 16 14.7071 16 12.4979C16 10.2888 14.2091 8.49794 12 8.49794Z" fill="#B0B0B0"/>
  </svg>