<svg width="11" height="12" viewBox="0 0 11 12" fill="none" xmlns="http://www.w3.org/2000/svg">
<path d="M9.02079 3.03386L9.38272 2.67734L9.79638 3.08481L10.5203 2.37174L8.96909 0.84375L8.2452 1.55682L8.65885 1.96427L8.1935 2.42266C5.7116 0.9456 2.50581 1.70959 1.05804 4.15438C-0.389727 6.59916 0.385842 9.65514 2.81604 11.1322C5.24624 12.6093 8.45201 11.8453 9.8998 9.40049C11.1925 7.31223 10.8305 4.66372 9.02079 3.03386ZM5.50476 10.3173C3.48822 10.3173 1.88533 8.73837 1.88533 6.75198C1.88533 4.7656 3.48822 3.18666 5.50476 3.18666V6.75196H9.12419C9.12421 8.73835 7.5213 10.3173 5.50476 10.3173Z" fill="#E5625C"/>
</svg>
