<svg
  width="16"
  height="21"
  viewBox="0 0 16 21"
  fill="none"
  xmlns="http://www.w3.org/2000/svg"
>
  <path
    d="M7.99999 20.2627C9.07338 20.2627 9.95161 19.3356 9.95161 18.2025H6.04838C6.04838 19.3356 6.91685 20.2627 7.99999 20.2627ZM13.8548 14.0821V8.93163C13.8548 5.76923 12.2545 3.12187 9.4637 2.4214V1.72093C9.4637 0.865948 8.80991 0.175781 7.99999 0.175781C7.19008 0.175781 6.53628 0.865948 6.53628 1.72093V2.4214C3.73572 3.12187 2.14516 5.75892 2.14516 8.93163V14.0821L0.193542 16.1423V17.1724H15.8064V16.1423L13.8548 14.0821Z"
    fill="#B0B0B0"
  />
  <rect y="-0.142184" width="0.913545" height="23.0334" rx="0.456772" transform="matrix(0.703274 0.710919 -0.703274 0.710919 16.7334 0.568272)" fill="#B0B0B0" stroke="white" stroke-width="0.2"/>
</svg>