<svg width="15" height="16" viewBox="0 0 15 16" fill="none" xmlns="http://www.w3.org/2000/svg">
<path d="M3.07327 12.9892L6.86896 11.4296C6.964 11.3654 7.05905 11.3012 7.12343 11.24L13.375 3.638C13.5651 3.35055 13.5344 2.97137 13.2799 2.74814L10.3121 0.298733C10.0668 0.118315 9.68966 0.0907934 9.45051 0.393529L3.16832 7.9925C3.10393 8.0873 3.07327 8.18209 3.03955 8.27995L2.24239 12.3195C2.20253 13.0106 2.75748 13.1298 3.07327 12.9892ZM9.99319 1.66257L12.0014 3.31692L6.55316 9.9557L4.56334 8.31358L9.99319 1.66257ZM4.06972 9.54899L5.43101 10.6743L3.67727 11.396L4.06972 9.54899Z" fill="#E5625C"/>
<path d="M14.3623 13.8786H3.64665C3.64665 13.8786 1.42381 13.9826 1.34103 13.4138C1.34103 13.3833 1.28584 13.2426 1.57405 12.894C1.79786 12.6065 1.76414 12.2274 1.50966 12.0041C1.22146 11.7809 0.841276 11.8145 0.617459 12.0683C0.010395 12.7992 -0.149036 13.4352 0.139166 14.0101C0.920991 15.4627 3.5516 15.1202 3.67731 15.1507H14.3623C14.7118 15.1507 15 14.8633 15 14.5147C15.003 14.163 14.7148 13.8786 14.3623 13.8786Z" fill="#E5625C"/>
</svg>
