<svg width="22" height="23" viewBox="0 0 22 23" fill="none" xmlns="http://www.w3.org/2000/svg">
    <path
      d="M11.1675 6.12354C10.1244 6.12354 9.10472 6.45177 8.23742 7.06673C7.37011 7.68169 6.69413 8.55576 6.29495 9.57841C5.89577 10.6011 5.79133 11.7263 5.99482 12.812C6.19832 13.8976 6.70063 14.8948 7.43821 15.6775C8.17579 16.4602 9.11553 16.9932 10.1386 17.2092C11.1617 17.4251 12.2221 17.3143 13.1858 16.8907C14.1495 16.4671 14.9732 15.7498 15.5527 14.8294C16.1322 13.9091 16.4415 12.827 16.4415 11.7201C16.4427 10.9848 16.3071 10.2565 16.0425 9.57688C15.7779 8.89729 15.3895 8.27981 14.8995 7.75987C14.4095 7.23992 13.8276 6.82772 13.1872 6.54693C12.5468 6.26613 11.8604 6.12225 11.1675 6.12354ZM11.1675 15.3578C10.4895 15.3578 9.82674 15.1445 9.26301 14.7447C8.69928 14.345 8.2599 13.7769 8.00045 13.1122C7.74099 12.4475 7.67311 11.7161 7.80538 11.0105C7.93765 10.3048 8.26413 9.65665 8.74354 9.14792C9.22296 8.63918 9.83377 8.29272 10.4987 8.15236C11.1637 8.012 11.853 8.08404 12.4793 8.35937C13.1057 8.63469 13.6411 9.10094 14.0178 9.69915C14.3944 10.2974 14.5955 11.0007 14.5955 11.7201C14.5937 12.6843 14.2319 13.6084 13.5894 14.2902C12.947 14.972 12.0761 15.3559 11.1675 15.3578ZM17.8863 5.89473C17.8863 6.15294 17.8141 6.40536 17.6789 6.62005C17.5437 6.83475 17.3516 7.00208 17.1268 7.1009C16.902 7.19971 16.6546 7.22557 16.416 7.17519C16.1773 7.12482 15.9581 7.00047 15.786 6.81789C15.614 6.63531 15.4968 6.40268 15.4493 6.14943C15.4019 5.89618 15.4262 5.63367 15.5193 5.39512C15.6125 5.15656 15.7701 4.95266 15.9725 4.80921C16.1748 4.66575 16.4127 4.58918 16.656 4.58918C16.8178 4.58854 16.9781 4.62185 17.1277 4.68722C17.2773 4.75258 17.4132 4.84871 17.5277 4.97005C17.6422 5.0914 17.7329 5.23557 17.7946 5.39426C17.8563 5.55296 17.8879 5.72304 17.8874 5.89473H17.8863ZM21.3742 7.21863C21.4082 5.52162 20.8113 3.87861 19.7127 2.64493C18.5478 1.48304 17.0011 0.850308 15.4026 0.881772C13.7042 0.778993 8.61467 0.778993 6.91623 0.881772C5.31827 0.847943 3.77127 1.47903 2.60616 2.64004C1.51228 3.87638 0.918307 5.51823 0.951548 7.21374C0.854692 9.01605 0.854692 14.4169 0.951548 16.2192C0.917564 17.9162 1.51444 19.5592 2.61308 20.7929C3.77835 21.9533 5.32427 22.5854 6.922 22.5548C8.62043 22.6576 13.71 22.6576 15.4084 22.5548C17.0076 22.5909 18.5559 21.9575 19.7185 20.7917C20.811 19.5548 21.4051 17.9141 21.3742 16.2192C21.4757 14.4169 21.4757 9.02095 21.3742 7.21863ZM19.1835 18.15C19.0089 18.621 18.7448 19.0488 18.4076 19.4067C18.0703 19.7646 17.6672 20.0449 17.2233 20.23C15.8696 20.8002 12.6561 20.6681 11.1606 20.6681C9.66509 20.6681 6.44695 20.7904 5.09789 20.23C4.65401 20.0449 4.25086 19.7646 3.9136 19.4067C3.57635 19.0488 3.31222 18.621 3.13772 18.15C2.6004 16.7135 2.72493 13.3034 2.72493 11.7165C2.72493 10.1295 2.60962 6.71452 3.13772 5.28295C3.31222 4.81192 3.57635 4.3841 3.9136 4.02622C4.25086 3.66834 4.65401 3.38806 5.09789 3.20288C6.45156 2.6327 9.66509 2.76484 11.1606 2.76484C12.6561 2.76484 15.8742 2.64249 17.2233 3.20288C17.6672 3.38806 18.0703 3.66834 18.4076 4.02622C18.7448 4.3841 19.0089 4.81192 19.1835 5.28295C19.7208 6.71941 19.5962 10.1295 19.5962 11.7165C19.5962 13.3034 19.7231 16.7209 19.1835 18.15Z"
      fill="#000" />
  </svg>