  <svg width="14" height="13" viewBox="0 0 14 13" fill="#e5625c" xmlns="http://www.w3.org/2000/svg">
    <path d="M0.11499 12.2947H2.47863V5.20384H0.11499V12.2947ZM13.115 5.79474C13.115 5.14474 12.5832 4.61293 11.9332 4.61293H8.20454L8.7659 1.91247L8.78363 1.72338C8.78363 1.48111 8.68317 1.25656 8.52363 1.09702L7.89726 0.476562L4.00908 4.37065C3.79044 4.58338 3.66044 4.87884 3.66044 5.20384V11.1129C3.66044 11.7629 4.19226 12.2947 4.84226 12.2947H10.1604C10.6509 12.2947 11.0704 11.9993 11.2477 11.5738L13.0323 7.40793C13.0854 7.27202 13.115 7.1302 13.115 6.97656V5.79474Z"/>
  </svg>