<svg width="25" height="25" viewBox="0 0 25 25" fill="none" xmlns="http://www.w3.org/2000/svg">
<rect width="25" height="25" rx="12.5" fill="white"/>
<path d="M9.72385 13.2457L11.5942 11.3753L6.95462 6.74233C5.92359 7.77336 5.92359 9.44547 6.95462 10.4831L9.72385 13.2457V13.2457ZM14.2049 12.0495C15.2161 12.5187 16.637 12.1883 17.6879 11.1374C18.9502 9.87506 19.1948 8.06416 18.2232 7.09261C17.2583 6.12768 15.4474 6.36561 14.1784 7.62795C13.1276 8.67881 12.7971 10.0998 13.2664 11.111L6.81583 17.5615L7.74772 18.4934L12.3014 13.9529L16.8485 18.5L17.7804 17.5681L13.2333 13.021L14.2049 12.0495V12.0495Z" fill="#FBE4C8"/>
</svg>
