<svg width="20" height="19" viewBox="0 0 20 19" fill="none" xmlns="http://www.w3.org/2000/svg">
  <path d="M11.9559 6.55777L11.8308 7.15953H12.4455H18.1818C18.9057 7.15953 19.5 7.75386 19.5 8.47772V10.2959C19.5 10.4628 19.4689 10.6172 19.4098 10.7705L16.6677 17.1717L16.6676 17.1717L16.6657 17.1763C16.469 17.6486 16.0029 17.9777 15.4545 17.9777H7.27273C6.54887 17.9777 5.95455 17.3834 5.95455 16.6595V7.56863C5.95455 7.20473 6.09917 6.87909 6.33959 6.64517L6.33962 6.64521L6.34473 6.64009L11.9747 1.0016L12.5828 1.604C12.5831 1.60427 12.5833 1.60453 12.5836 1.6048C12.7344 1.75596 12.8306 1.96718 12.8361 2.1934L12.8139 2.43054L11.9559 6.55777ZM3.13636 8.06863V17.9777H0.5V8.06863H3.13636Z" fill="white" stroke="#DF8C26"/>
</svg>