<svg width="21" height="21" viewBox="0 0 21 21" fill="none" xmlns="http://www.w3.org/2000/svg">
<g clip-path="url(#clip0_4801_17160)">
<path d="M19.3203 3.82961L16.1425 7.00734L15.3135 6.17836L18.4913 3.00059L17.6623 2.1716L14.4845 5.34934L13.6555 4.52035L16.8333 1.34262L16.0044 0.513672L11.8595 4.65859C11.3524 5.16566 11.0496 5.83895 11.0068 6.55449C10.996 6.73578 10.9549 6.9141 10.8867 7.08371L13.5793 9.77625C13.7489 9.70801 13.9272 9.66695 14.1085 9.65613C14.824 9.61344 15.4973 9.31059 16.0044 8.80352L20.1493 4.65863L19.3203 3.82961Z" fill="#FBE4C8"/>
<path d="M19.6502 17.5049L11.8079 9.6625L2.64535 0.5H1.9293L1.78309 0.871523C1.39719 1.85215 1.23231 2.85512 1.30633 3.77188C1.39071 4.81687 1.7877 5.7216 2.45446 6.38836L9.60719 13.5411L10.5506 12.5977L17.1633 19.9919C17.8211 20.6497 18.9534 20.6888 19.6502 19.9919C20.3359 19.3062 20.3359 18.1906 19.6502 17.5049Z" fill="#FBE4C8"/>
<path d="M6.29199 11.8848L0.69 17.4868C0.00437497 18.1724 0.00437497 19.288 0.69 19.9737C1.34133 20.625 2.46809 20.6825 3.17691 19.9737L8.77895 14.3716L6.29199 11.8848Z" fill="#FBE4C8"/>
</g>
<defs>
<clipPath id="clip0_4801_17160">
<rect width="20" height="20" fill="white" transform="translate(0.167969 0.5)"/>
</clipPath>
</defs>
</svg>
