<svg width="21" height="23" viewBox="0 0 21 23" fill="none" xmlns="http://www.w3.org/2000/svg">
<path d="M17.31 5.0651L18.0101 4.37617L18.8102 5.16356L20.2104 3.78564L17.21 0.833008L15.8098 2.21092L16.6099 2.99826L15.7098 3.88405C10.9092 1.02982 4.70849 2.50614 1.90817 7.23036C-0.892155 11.9546 0.607979 17.8598 5.30856 20.7141C10.0091 23.5683 16.2099 22.092 19.0102 17.3678C21.5105 13.3325 20.8104 8.2146 17.31 5.0651ZM10.5092 19.1394C6.6087 19.1394 3.50834 16.0883 3.50834 12.2499C3.50834 8.41146 6.6087 5.36037 10.5092 5.36037V12.2498H17.51C17.51 16.0883 14.4096 19.1394 10.5092 19.1394Z" fill="#DDD5E7"/>
</svg>
