  <svg width="13" height="15" viewBox="0 0 13 15" fill="#000" xmlns="http://www.w3.org/2000/svg">
   <path d="M10.8333 10.671C10.2844 10.671 9.79333 10.8818 9.41778 11.2121L4.26833 8.29547C4.30444 8.13382 4.33333 7.97218 4.33333 7.8035C4.33333 7.63483 4.30444 7.47318 4.26833 7.31154L9.36 4.42298C9.75 4.77439 10.2628 4.99226 10.8333 4.99226C12.0322 4.99226 13 4.05049 13 2.88382C13 1.71716 12.0322 0.775391 10.8333 0.775391C9.63444 0.775391 8.66667 1.71716 8.66667 2.88382C8.66667 3.0525 8.69556 3.21415 8.73167 3.37579L3.64 6.26435C3.25 5.91294 2.73722 5.69507 2.16667 5.69507C0.967778 5.69507 0 6.63684 0 7.8035C0 8.97017 0.967778 9.91194 2.16667 9.91194C2.73722 9.91194 3.25 9.69407 3.64 9.34266L8.78222 12.2664C8.74611 12.4139 8.72444 12.5686 8.72444 12.7232C8.72444 13.8547 9.67056 14.7754 10.8333 14.7754C11.9961 14.7754 12.9422 13.8547 12.9422 12.7232C12.9422 11.5917 11.9961 10.671 10.8333 10.671Z"/>
  </svg>