 <svg width="11" height="12" viewBox="0 0 11 12" fill="none" xmlns="http://www.w3.org/2000/svg">
    <g clip-path="url(#clip0_3356_13304)">
      <path
        d="M9.02085 2.4572L9.38279 2.10068L9.79644 2.50815L10.5203 1.79508L8.96915 0.26709L8.24526 0.98016L8.65891 1.38761L8.19356 1.846C5.71166 0.36894 2.50587 1.13293 1.0581 3.57772C-0.389666 6.0225 0.385903 9.07848 2.8161 10.5555C5.2463 12.0326 8.45207 11.2686 9.89986 8.82383C11.1925 6.73557 10.8306 4.08706 9.02085 2.4572ZM5.50482 9.74063C3.48828 9.74063 1.88539 8.16171 1.88539 6.17532C1.88539 4.18894 3.48828 2.61 5.50482 2.61V6.1753H9.12425C9.12427 8.16169 7.52136 9.74063 5.50482 9.74063Z"
        fill="#DF8C26" />
    </g>
    <defs>
      <clipPath id="clip0_3356_13304">
        <rect width="10.34" height="11.04" fill="white" transform="translate(0.330078 0.26709)" />
      </clipPath>
    </defs>
  </svg>