  <svg width="25" height="22" viewBox="0 0 25 22" fill="none" xmlns="http://www.w3.org/2000/svg">
    <path
      d="M21.7761 5.95888C21.7909 6.18507 21.7909 6.41126 21.7909 6.63745C21.8037 8.59163 21.4611 10.5291 20.7831 12.3372C20.105 14.1453 19.1051 15.7881 17.8414 17.1699C16.5776 18.5518 15.0753 19.6452 13.4218 20.3865C11.7682 21.1279 9.99633 21.5025 8.20919 21.4886C5.61033 21.4962 3.06481 20.6825 0.878906 19.1454C1.2618 19.1917 1.64684 19.2134 2.03205 19.2104C4.18079 19.2163 6.26869 18.4305 7.95891 16.9798C6.9624 16.9596 5.99655 16.5995 5.19639 15.9497C4.39622 15.2999 3.80174 14.393 3.49605 13.3557C3.79433 13.4075 4.09575 13.4346 4.39776 13.4369C4.82197 13.4358 5.24434 13.3762 5.65491 13.2595C4.57384 13.0204 3.60183 12.3794 2.90409 11.4453C2.20634 10.5113 1.82592 9.34186 1.82748 8.13581V8.07458C2.48896 8.47813 3.22828 8.70507 3.98519 8.73691C2.97211 7.99802 2.2551 6.86424 1.98048 5.56696C1.70587 4.26968 1.89435 2.90671 2.50748 1.75623C3.70645 3.36994 5.20221 4.69009 6.89775 5.6311C8.5933 6.5721 10.4508 7.11294 12.3498 7.21855C12.2745 6.82521 12.2362 6.42448 12.2355 6.02261C12.2378 4.97724 12.5269 3.95667 13.0653 3.09285C13.6037 2.22903 14.3667 1.56166 15.2557 1.17704C16.1447 0.792425 17.1187 0.708234 18.0519 0.935351C18.9851 1.16247 19.8345 1.69045 20.4903 2.45105C21.5594 2.22579 22.5846 1.79913 23.5201 1.19012C23.1637 2.39543 22.4177 3.41733 21.4218 4.06438C22.3697 3.9462 23.2961 3.67367 24.1703 3.25583C23.5168 4.29646 22.7073 5.20904 21.7761 5.95513V5.95888Z"
      fill="#000" />
  </svg>