<svg width="40" height="41" viewBox="0 0 40 41" fill="none" xmlns="http://www.w3.org/2000/svg">
<g clip-path="url(#clip0_3357_13567)">
<path d="M23.588 7.68506H13.4852L7.38477 14.4221L7.38711 17.1799L8.78047 35.0883H28.2926L29.6861 17.1799L29.6886 14.4221L23.588 7.68506ZM22.12 13.4395H14.9533C14.2997 13.4395 13.7696 12.9095 13.7696 12.2558C13.7696 11.6022 14.2997 11.0723 14.9533 11.0723H22.12C22.7738 11.0723 23.3037 11.6023 23.3037 12.2558C23.3036 12.9096 22.7738 13.4395 22.12 13.4395Z" fill="#386499"/>
<path d="M8.78125 35.0884L9.13016 39.5728H27.9444L28.2934 35.0884H8.78125Z" fill="#386499"/>
<path d="M18.537 30.5544C21.0685 30.5544 23.1208 28.5021 23.1208 25.9706C23.1208 23.439 21.0685 21.3867 18.537 21.3867C16.0054 21.3867 13.9531 23.439 13.9531 25.9706C13.9531 28.5021 16.0054 30.5544 18.537 30.5544Z" fill="#F6E088"/>
<path d="M14.9515 10.4727C13.968 10.4727 13.168 11.2727 13.168 12.2561C13.168 13.2396 13.968 14.0396 14.9515 14.0396H22.1182C23.1017 14.0396 23.9017 13.2395 23.9017 12.2561C23.9017 11.2727 23.1017 10.4727 22.1182 10.4727H14.9515ZM22.7019 12.2563C22.7019 12.5782 22.44 12.8401 22.1181 12.8401H14.9513C14.6295 12.8401 14.3675 12.5782 14.3675 12.2563C14.3675 11.9344 14.6294 11.6725 14.9513 11.6725H22.1181C22.44 11.6724 22.7019 11.9343 22.7019 12.2563Z" fill="#491E17"/>
<path d="M33.2151 3.25512L32.2564 2.53372L26.5718 10.0882L26.1051 9.57295L29.2079 0.563555L28.0736 0.172852L25.1859 8.55771L23.8526 7.08544H13.2177L6.7832 14.1913L6.78578 17.1807L8.13071 34.4887H8.13063L8.21891 35.6236L8.22399 35.6885L8.57289 40.1729H28.4972L28.8462 35.6885L30.2827 17.2267L30.2872 14.1912L27.3917 10.9937L33.2151 3.25512ZM27.3872 38.9732H9.68305L9.42751 35.6885H27.6429L27.3872 38.9732ZM29.0854 16.5804H24.4054V17.7802H29.0363L27.7361 34.4889H9.33415L8.03407 17.7802H22.8056V16.5804H7.98508L7.98344 14.6534L13.7499 8.28529H23.3206L29.0872 14.6534L29.0854 16.5804Z" fill="#491E17"/>
<path d="M18.535 20.7871C15.6769 20.7871 13.3516 23.1124 13.3516 25.9706C13.3516 28.8287 15.6768 31.154 18.535 31.154C21.3931 31.154 23.7185 28.8287 23.7185 25.9706C23.7185 23.1124 21.3931 20.7871 18.535 20.7871ZM18.535 29.9542C16.3384 29.9542 14.5513 28.167 14.5513 25.9705C14.5513 23.7739 16.3384 21.9868 18.535 21.9868C20.7316 21.9868 22.5187 23.7739 22.5187 25.9705C22.5185 28.1671 20.7316 29.9542 18.535 29.9542Z" fill="#491E17"/>
</g>
<defs>
<clipPath id="clip0_3357_13567">
<rect width="40" height="40" fill="white" transform="translate(0 0.172852)"/>
</clipPath>
</defs>
</svg>
