<svg width="40" height="38" viewBox="0 0 40 38" fill="none" xmlns="http://www.w3.org/2000/svg">
<path d="M2.79146 0.606242C2.42868 0.643377 2.15221 0.947244 2.14989 1.31208V4.17143C2.14846 4.56822 2.47001 4.88994 2.8668 4.88834H3.38286V5.01402C3.34501 6.51221 2.48117 8.29114 1.60027 10.1916C0.719373 12.0916 -0.175539 14.1385 0.0296883 16.3371V19.7042H1.75926V23.9335H0.0297775V26.313H0.00746054V27.7358H0.0297775V32.7011C0.0297775 33.7696 0.371406 34.8523 1.01173 35.7169C1.36692 36.1961 1.83049 36.6672 2.35075 37.0445C2.87118 37.4219 3.43232 37.742 4.09986 37.742H11.6486C12.9589 37.742 13.8869 36.8001 14.5442 35.9566C14.6306 36.1451 14.7103 36.3475 14.8064 36.5173C14.8992 36.6814 15.0204 36.9329 15.2277 37.1841C15.4349 37.4356 15.7999 37.7467 16.3016 37.742C17.5956 37.7263 19.3309 37.7263 20.6255 37.742H20.6369C21.1427 37.742 21.4927 37.4202 21.6914 37.1729C21.89 36.9256 22.0177 36.6898 22.1015 36.5618C22.6008 35.7983 22.9934 34.7166 23.3038 33.7888C23.516 33.1544 23.5799 32.9181 23.6609 32.6284L25.6667 32.6055C25.7611 32.8852 25.8448 33.143 26.0991 33.7967C26.4586 34.7211 26.9118 35.799 27.4269 36.5501C27.5058 36.6659 27.621 36.903 27.8175 37.1501C28.0134 37.3973 28.3685 37.7237 28.8803 37.7191H28.8917C30.1864 37.7034 31.9217 37.7034 33.2157 37.7191C33.7123 37.7191 34.0722 37.4233 34.2813 37.1724C34.4902 36.9213 34.6192 36.6693 34.7137 36.4972C35.4433 35.1661 35.8293 33.2168 36.0834 31.5513C36.2448 30.4947 36.3267 29.7134 36.3763 29.169H37.9971C39.0927 29.169 40.0001 28.2731 40.0001 27.1771V26.184C40.0001 25.0881 39.0926 24.1922 37.9971 24.1922H35.4334L35.5422 22.7583V22.7354C35.5409 20.5191 34.7544 18.4438 33.3161 17.2398C31.8775 16.0361 29.9022 16.04 28.4678 17.2569C28.4138 17.2997 28.373 17.3526 28.3227 17.3997C27.5019 15.9142 26.2171 14.9206 24.7242 14.8864C23.1954 14.8493 21.8474 15.8387 20.9917 17.3523C20.9486 17.3151 20.9098 17.2736 20.8662 17.2381C19.3625 16.0419 17.3471 16.0429 15.8476 17.2552C15.7991 17.2923 15.7574 17.341 15.7109 17.3809L15.7224 16.2983V16.2754C15.6845 14.0791 14.7829 12.0575 13.9509 10.1801C13.119 8.30274 12.3692 6.56371 12.3692 5.04723V4.8994H12.8629C13.2597 4.8994 13.5815 4.57911 13.5799 4.1825V1.32324C13.5756 0.931265 13.2555 0.615794 12.8629 0.6174H6.58615V2.48926H4.44372V0.617302H2.86761C2.84065 0.615963 2.81931 0.615963 2.79235 0.617302V0.603027L2.79146 0.606242Z" fill="#5A3392"/>
<path d="M3.57244 2.02881H12.1449V3.45433H4.09966H3.57227V2.02881H3.57244Z" fill="#EE746C"/>
<path d="M4.81661 4.88859H10.9315V5.03642C10.9315 7.00219 11.8215 8.88021 12.6499 10.7496C13.2662 12.1402 13.8529 13.5209 14.1256 14.8838H1.49414C1.67768 13.562 2.25051 12.1868 2.89734 10.7914C3.76405 8.9219 4.76983 7.03888 4.81661 5.05597V5.03455V4.88672V4.88859Z" fill="#29A3EC"/>
<path d="M1.46388 16.3176H14.285L14.2526 19.333C13.7732 20.3512 13.5112 21.5308 13.5134 22.7588V22.7802L13.6278 24.1808L12.0042 24.165C11.0326 24.1508 10.2249 24.8653 10.0432 25.783C10.0162 25.9101 9.99996 26.0384 9.99996 26.1706V26.3077H1.46094V16.3152L1.46388 16.3176Z" fill="white"/>
<path d="M24.6934 16.3176C25.6883 16.3391 26.7024 17.1554 27.3212 18.6329C26.6252 19.7881 26.2502 21.2365 26.2527 22.7588V22.786L26.3618 24.1947H23.0924L23.2068 22.7664V22.7392C23.2058 21.1739 22.7841 19.6863 22.0156 18.5213C22.6632 17.0639 23.694 16.2947 24.6937 16.3176H24.6934Z" fill="white"/>
<path d="M30.888 17.7123C31.3933 17.7131 31.8998 17.924 32.3972 18.34C33.3898 19.1708 34.1032 20.8627 34.1072 22.7253V22.741L33.9981 24.1944H27.7913L27.6855 22.7522V22.7364C27.6854 20.874 28.39 19.1763 29.3816 18.3398C29.8782 17.9205 30.3827 17.7114 30.888 17.7122V17.7123Z" fill="white"/>
<path d="M18.3556 17.7236C18.9037 17.7243 19.4516 17.9369 19.9792 18.3569C21.0345 19.1969 21.7718 20.8842 21.773 22.7422L21.6559 24.1928H15.1058C15.0135 23.4038 14.9822 22.7352 15.0054 22.1786C15.0378 21.3855 15.3131 20.6647 15.5633 19.961C15.8689 19.3029 16.2598 18.7358 16.7321 18.357C17.259 17.9344 17.8075 17.723 18.3557 17.7237L18.3556 17.7236Z" fill="white"/>
<path d="M12.0082 25.6152H14.1033H14.4547C14.4597 25.6152 14.4656 25.6152 14.4709 25.6152H37.9986C38.3327 25.6152 38.5677 25.8604 38.5677 26.1843V27.1776C38.5677 27.5019 38.3323 27.7355 37.9986 27.7355H12.0104C11.8435 27.7355 11.6978 27.6755 11.5947 27.5764C11.5407 27.5277 11.503 27.4664 11.4748 27.3976C11.4479 27.3319 11.4316 27.2562 11.4316 27.1774V27.1631V26.3095V26.1724C11.4345 25.8506 11.68 25.6089 12.0119 25.6089L12.0082 25.6152Z" fill="#FB9761"/>
<path d="M1.46289 27.7354H10.094C10.2166 28.1446 10.466 28.4994 10.7998 28.7535C10.8045 28.7535 10.8106 28.7535 10.8159 28.7678C10.9736 28.885 11.1474 28.9789 11.3347 29.047C11.3616 29.0612 11.3903 29.0627 11.4183 29.0742C11.604 29.1327 11.7978 29.1741 12.0013 29.1741C12.0042 29.1741 12.0068 29.1741 12.0122 29.1741H12.7487C12.8172 29.8089 13.1028 32.1889 13.792 34.5302C13.7262 34.6487 13.6652 34.7789 13.5912 34.8788C13.029 35.6374 12.2334 36.3126 11.6524 36.3126H4.10371C3.9806 36.3126 3.58443 36.1726 3.1971 35.8915C2.81003 35.6103 2.41895 35.2251 2.16222 34.8788C1.72927 34.2944 1.46753 33.4605 1.46753 32.7057V27.7404L1.46289 27.7354Z" fill="#29A3EC"/>
<path d="M14.3788 29.1694H34.9383C34.8843 29.7071 34.8033 30.4378 34.6652 31.3424C34.4207 32.9438 33.9838 34.8406 33.4516 35.8115C33.3518 35.9941 33.2525 36.1662 33.1779 36.2553C33.151 36.2924 33.1455 36.2924 33.1402 36.2981C31.8659 36.2824 30.2262 36.2824 28.9501 36.2981C28.9458 36.2981 28.9508 36.2981 28.9285 36.2653C28.8502 36.1668 28.7418 35.9663 28.5911 35.7466C28.2299 35.2197 27.766 34.1645 27.4222 33.2806C27.0784 32.3965 26.842 31.6793 26.842 31.6793C26.747 31.3811 26.4684 31.1805 26.1558 31.1827L23.1207 31.1984C22.7968 31.1984 22.5153 31.4207 22.4345 31.7338C22.4345 31.7338 22.2439 32.4558 21.9492 33.3379C21.6539 34.22 21.2286 35.2739 20.8947 35.7845C20.7565 35.996 20.6571 36.1817 20.5794 36.2785C20.5524 36.3112 20.5578 36.3057 20.5524 36.3112C19.2746 36.2955 17.6311 36.2955 16.3541 36.3112C16.3512 36.3112 16.3555 36.3112 16.3325 36.2785C16.2579 36.1885 16.1543 36.0037 16.048 35.8153C15.4945 34.8364 15.0021 32.9382 14.7089 31.3351C14.5449 30.4373 14.445 29.7077 14.377 29.1703L14.3788 29.1694Z" fill="#EE746C"/>
<path d="M2.60878 17.2096H13.1391L13.1121 19.6862C12.7186 20.5224 12.5032 21.4915 12.5049 22.4999V22.5156L12.5989 23.666L11.2654 23.6518C10.4674 23.6375 9.80396 24.2266 9.6547 24.9807C9.6331 25.0835 9.61694 25.1907 9.61694 25.2992V25.412H2.60352V17.2048L2.60878 17.2096Z" fill="#EBFEFF"/>
<path d="M7.83211 18.4546C7.60823 18.4631 7.40131 18.5762 7.2733 18.7602C7.2733 18.7602 6.89864 19.2969 6.52469 19.9409C6.33795 20.2633 6.14843 20.6198 5.9973 20.9637C5.84617 21.3076 5.71289 21.6158 5.71289 22.0287C5.71289 23.2033 6.68886 24.169 7.86371 24.169C9.03857 24.169 10.0041 23.2033 10.0041 22.0287C10.0041 21.6156 9.87019 21.3074 9.71959 20.9637C9.56846 20.6197 9.37948 20.2629 9.19274 19.9409C8.81915 19.2967 8.44413 18.7602 8.44413 18.7602C8.30541 18.5611 8.0751 18.4459 7.83256 18.4546H7.83211Z" fill="#5A3392"/>
<path d="M7.86508 20.5107C7.90829 20.5864 7.91364 20.5779 7.96006 20.658C8.13012 20.9516 8.29633 21.2674 8.41354 21.5331C8.53013 21.7987 8.57173 22.047 8.57173 22.0288C8.57173 22.4314 8.26777 22.7457 7.86535 22.7457C7.46266 22.7457 7.14844 22.4315 7.14844 22.0288C7.14844 22.0445 7.19164 21.7987 7.30662 21.5331C7.4232 21.2674 7.60031 20.9514 7.77037 20.658C7.81893 20.578 7.81893 20.5865 7.86535 20.5107H7.86508Z" fill="#29A3EC"/>
<path d="M5.33767 5.75854H10.3878V5.87986C10.3878 7.50347 11.1229 9.0545 11.807 10.5981C12.3161 11.7466 12.8007 12.887 13.0258 14.0124H2.59375C2.74542 12.921 3.21845 11.7851 3.75263 10.6327C4.46847 9.0886 5.29911 7.53355 5.33776 5.89602V5.88031V5.75899L5.33767 5.75854Z" fill="#3CDEF6"/>
<path d="M6.67344 6.64634C6.35565 6.63259 6.0791 6.86165 6.03366 7.1765C5.82316 8.49142 5.58071 9.61129 4.90031 10.6313C4.71437 10.9186 4.79649 11.3024 5.08385 11.4884C5.36656 11.6713 5.74363 11.5951 5.93305 11.3167C6.76914 10.0634 7.04149 8.73048 7.25824 7.37754C7.32028 7.04118 7.09809 6.71829 6.76182 6.65624C6.73263 6.6508 6.70299 6.64767 6.67335 6.64651L6.67344 6.64634Z" fill="white"/>
</svg>
