<svg width="40" height="41" viewBox="0 0 40 41" fill="none" xmlns="http://www.w3.org/2000/svg">
<path d="M1.25 20.9229C1.25 29.1729 9.625 38.9229 20 38.9229C30.375 38.9229 38.75 29.1729 38.75 20.9229H1.25Z" fill="#B2C1C0"/>
<path d="M38.75 20.9229C38.75 26.2354 30.375 30.5479 20 30.5479C9.625 30.5479 1.25 26.2354 1.25 20.9229C1.25 15.6104 9.625 11.2979 20 11.2979C30.375 11.2979 38.75 15.6104 38.75 20.9229Z" fill="#E8E8E8"/>
<path d="M20 29.2978C10.5 29.2978 2.4375 25.4229 2.4375 20.8604C2.4375 16.2979 10.5 12.4229 20 12.4229C29.5 12.4229 37.5625 16.2979 37.5625 20.8604C37.5625 25.4854 29.5 29.2978 20 29.2978Z" fill="#B2C1C0"/>
<path d="M7.8125 10.4229C7.875 11.4854 8.375 15.0479 7.9375 16.6729C10.6875 17.1729 8.625 11.8604 7.8125 10.4229Z" fill="#699635"/>
<path d="M34.75 17.4851C36 14.6101 34.0625 11.6101 32.8125 13.3601C31.5625 15.1101 32.5 16.2351 29.3125 15.6101C28.625 14.4226 30.3125 10.7976 29.3125 10.1101C27.6875 9.04762 27.6875 13.0476 25.8125 10.7351C23.9375 8.48512 23.875 13.7976 21.0625 13.7976C19.6875 13.7976 21.625 9.67262 18.5 8.86012C15.375 8.04762 16.25 11.6101 12.5 9.54762C8.75 7.48512 6.8125 10.6101 8.5625 11.9226C10.25 13.2351 8.875 15.8601 8.625 16.8601C6.5 15.8601 6.625 20.1726 6.6875 20.8601C5.1875 21.3601 2.75 22.4226 2.6875 22.4851C4.25 26.2351 11.5 29.2976 20 29.2976C29.5 29.2976 37.5625 25.4226 37.5625 20.8601C37.5625 16.2351 32.6875 22.1726 34.75 17.4851Z" fill="#83BF4F"/>
<path d="M23.9375 22.6729C25.5 19.3604 21.6875 20.7354 20.25 22.1729C20.1875 19.7979 21.4375 18.2979 22.5 16.6729C20.75 17.9229 18.875 19.3604 16.8125 20.1104C18 21.4854 18.625 23.3604 18.875 25.1729C23.875 25.6729 22.75 28.0479 22.5 29.2354C28.4375 28.7979 22.4375 25.9229 23.9375 22.6729Z" fill="#699635"/>
<path d="M10.8127 14.4227C9.81267 15.4227 9.50017 16.6727 10.1252 17.2977C10.6877 17.9227 11.9377 17.6102 12.9377 16.6102C13.9377 15.6102 14.2502 14.3602 13.6252 13.7352C13.0002 13.1727 11.7502 13.4852 10.8127 14.4227Z" fill="#ED4C5C"/>
<path d="M24.0002 26.1725C23.0002 27.1725 22.6877 28.4225 23.3127 29.0475C23.8752 29.6725 25.1252 29.36 26.1252 28.36C27.1252 27.36 27.4377 26.11 26.8127 25.485C26.2502 24.86 25.0002 25.1725 24.0002 26.1725Z" fill="#ED4C5C"/>
<path d="M16.3125 12.6729C13.875 12.7979 12.75 19.1104 11 18.7354C12.4375 20.1104 13.1875 22.1729 13.1875 24.1729C13.5625 24.2354 14.125 23.1729 14.4375 24.2979C14 20.8604 14.125 17.1104 16.3125 12.6729Z" fill="#699635"/>
<path d="M26.5004 14.7355C27.1254 15.9855 27.0629 17.298 26.3129 17.673C25.5629 18.048 24.5004 17.423 23.8129 16.173C23.1879 14.923 23.2504 13.6105 24.0004 13.2355C24.7504 12.8605 25.8754 13.4855 26.5004 14.7355Z" fill="#ED4C5C"/>
<path d="M31.3125 15.798C26 15.173 25.1875 15.048 29.625 19.4855C30.8125 20.9855 26.3125 24.173 24.6875 24.4855C26.75 28.423 27.125 28.798 30 27.798C34 26.423 32 21.7355 33.875 22.7355C32.875 21.2355 27.25 20.548 31.3125 15.798Z" fill="#699635"/>
<path d="M34.563 18.9855C34.438 18.298 35.938 16.7355 35.6255 14.548C35.313 12.548 33.0005 11.3605 32.313 13.673C31.688 15.798 29.688 15.298 29.688 15.298C31.0005 10.173 30.313 7.67298 27.438 10.7355C25.938 12.298 27.313 5.42299 22.563 12.7355C20.1255 16.4855 21.1255 4.17299 16.7505 8.67299C13.2505 12.2355 10.563 5.29798 8.25055 9.48548C7.06305 11.673 9.62555 11.9855 8.93805 16.2355C8.93805 16.2355 6.31305 14.6105 6.56305 19.9855C6.62555 20.923 1.93805 21.1105 3.00055 22.673C4.06305 22.2355 10.7505 19.048 10.3755 21.9855C10.2505 22.8605 9.68805 25.673 11.2505 25.548C12.938 25.423 14.5005 22.798 14.563 25.798C14.6255 28.1105 15.7505 28.2355 17.3755 26.798C17.813 26.423 18.1255 25.798 18.7505 25.548C19.8755 25.1105 20.938 25.7355 22.0005 26.1105C24.0005 26.8605 23.438 24.048 22.063 23.548C21.813 23.4855 20.2505 23.2355 20.3755 22.9855C20.6255 22.2355 21.5005 21.7355 22.1255 21.423C22.688 21.173 23.313 20.9855 23.938 20.9855C24.813 21.048 24.5005 21.6105 24.313 22.298C24.1255 23.1105 24.2505 24.173 25.1255 24.423C26.1255 24.7355 26.938 23.798 27.6255 23.2355C28.1255 22.798 31.438 20.673 30.313 22.923C29.6255 24.2355 26.313 24.673 27.813 26.6105C28.813 27.8605 30.188 27.298 30.938 26.1105C31.563 25.173 31.813 24.048 32.063 22.923C32.2505 22.048 32.313 21.548 33.188 21.9855C34.3755 22.6105 35.8755 23.9855 35.938 21.7355C36.0005 20.2355 36.563 17.4855 37.8755 20.1105C37.063 16.673 34.688 19.923 34.563 18.9855ZM26.438 23.2355C26.3755 23.298 24.813 24.423 24.563 23.3605C24.3755 22.548 25.188 21.6105 24.688 20.923C23.813 19.7355 21.5005 20.8605 20.6255 21.4855C20.1255 21.8605 18.8755 23.048 19.813 23.6105C20.5005 24.048 21.563 23.798 22.188 24.423C22.688 24.923 22.813 25.8605 21.938 25.4855C20.813 25.048 19.688 24.4855 18.438 24.9855C17.7505 25.2355 16.063 27.7355 15.2505 27.2355C14.813 26.9855 15.0005 25.2355 14.938 24.7355C14.7505 23.298 13.7505 23.548 12.813 24.1105C12.438 24.3605 11.313 25.173 10.8755 24.8605C10.438 24.548 10.688 23.173 10.7505 22.7355C11.063 20.048 9.31305 19.798 7.06305 20.423C7.06305 19.6105 7.00055 16.3605 8.50055 16.923C9.37555 17.2355 11.6255 19.9855 12.438 18.423C13.313 16.7355 17.188 9.29799 17.188 14.8605C17.188 16.3605 15.8755 19.548 16.938 20.298C17.8755 20.923 20.2505 18.298 20.8755 17.923C22.438 16.8605 24.188 15.8605 25.0005 18.2355C25.563 19.798 25.688 21.8605 27.6255 22.298C27.1255 22.6105 26.7505 22.923 26.438 23.2355ZM29.438 20.6105C29.2505 21.7355 27.938 21.9855 27.063 21.4855C25.2505 20.423 26.2505 16.7355 24.0005 16.173C21.313 15.4855 17.813 20.173 17.313 19.673C16.688 18.9855 18.0005 16.1105 17.813 14.2355C17.2505 9.42298 13.5005 14.1105 12.0005 17.9855C11.688 18.7355 9.37555 16.7355 9.37555 16.7355C10.563 11.6105 7.75055 11.673 8.62555 10.048C10.438 6.42298 13.1255 13.423 16.813 9.61049C20.813 5.54799 19.313 18.7355 23.063 13.173C26.5005 8.11048 25.938 12.298 26.688 12.048C28.0005 11.6105 30.2505 7.29799 29.063 15.2355C21.6255 13.8605 29.813 18.423 29.438 20.6105ZM34.938 22.548C34.0005 22.3605 33.0005 20.7355 31.8755 21.298C30.938 21.7355 30.8755 24.2355 30.5005 25.1105C30.063 26.173 28.6255 27.4855 27.7505 25.923C27.563 25.548 30.2505 23.8605 30.563 23.1105C31.188 21.673 29.8755 21.548 30.0005 20.6105C30.438 17.7355 23.563 14.8605 29.7505 15.923C33.2505 16.548 32.438 12.2355 34.063 13.173C37.188 15.048 31.7505 19.7355 35.2505 19.798C35.0005 20.7355 35.1255 21.673 34.938 22.548Z" fill="#C7E755"/>
<path d="M5.37517 21.7977C6.37517 22.7352 6.68767 24.0477 6.06267 24.6727C5.50017 25.2977 4.25017 24.9852 3.25017 23.9852C2.25017 22.9852 1.93767 21.7352 2.56267 21.1102C3.18767 20.5477 4.43767 20.8602 5.37517 21.7977Z" fill="#ED4C5C"/>
</svg>
