<svg width="35" height="35" viewBox="0 0 35 35" fill="none" xmlns="http://www.w3.org/2000/svg">
<rect width="35" height="35" rx="17.5" fill="#837793"/>
<path d="M24.31 11.0651L25.0101 10.3762L25.8102 11.1636L27.2104 9.78564L24.21 6.83301L22.8098 8.21092L23.6099 8.99826L22.7098 9.88405C17.9092 7.02982 11.7085 8.50614 8.90817 13.2304C6.10785 17.9546 7.60798 23.8598 12.3086 26.7141C17.0091 29.5683 23.2099 28.092 26.0102 23.3678C28.5105 19.3325 27.8104 14.2146 24.31 11.0651ZM17.5092 25.1394C13.6087 25.1394 10.5083 22.0883 10.5083 18.2499C10.5083 14.4115 13.6087 11.3604 17.5092 11.3604V18.2498H24.51C24.51 22.0883 21.4096 25.1394 17.5092 25.1394Z" fill="#DDD5E7"/>
</svg>
