<svg width="35" height="35" viewBox="0 0 35 35" fill="none" xmlns="http://www.w3.org/2000/svg">
<rect width="35" height="35" rx="17.5" fill="#E5625C"/>
<path d="M21.3965 14.1898C18.2512 12.2761 19.7261 9.57521 19.7895 9.46294C19.8813 9.30318 19.881 9.10662 19.7887 8.94713C19.6964 8.78764 19.5261 8.68945 19.3418 8.68945C17.7227 8.68945 16.4549 9.14947 15.5735 10.0568C14.0675 11.6071 14.1373 14.02 14.1672 15.0503C14.1705 15.1645 14.1733 15.2631 14.1733 15.3363C14.1733 16.1014 14.2961 16.8076 14.4044 17.4307C14.4742 17.8323 14.5344 18.1791 14.5452 18.4517C14.5566 18.7436 14.5033 18.8104 14.5011 18.8132C14.4935 18.8222 14.4301 18.8559 14.2589 18.8559C14.0636 18.8559 13.9197 18.7921 13.7921 18.6491C13.2939 18.0904 13.2595 16.565 13.3547 15.7351C13.3718 15.5887 13.3255 15.4421 13.2275 15.3321C13.1295 15.2221 12.9892 15.1592 12.842 15.1592C11.5016 15.1592 10.5 17.3512 10.5 19.311C10.5 20.2323 10.6853 21.1348 11.0508 21.9935C11.4041 22.8236 11.9079 23.5727 12.5484 24.2201C13.882 25.5684 15.6405 26.3109 17.4998 26.3109C19.3666 26.3109 21.1246 25.5789 22.45 24.2497C23.7719 22.924 24.5 21.17 24.5 19.3109C24.5 16.9389 22.644 14.9487 21.3965 14.1898Z" fill="#F8D7D5"/>
</svg>
