<svg width="36" height="35" viewBox="0 0 36 35" fill="none" xmlns="http://www.w3.org/2000/svg">
<rect x="0.667969" width="35" height="35" rx="17.5" fill="#DF8C26"/>
<g clip-path="url(#clip0_4772_17666)">
<path d="M27.3203 10.8296L24.1425 14.0073L23.3135 13.1784L26.4913 10.0006L25.6623 9.1716L22.4845 12.3493L21.6555 11.5204L24.8333 8.34262L24.0044 7.51367L19.8595 11.6586C19.3524 12.1657 19.0496 12.8389 19.0068 13.5545C18.996 13.7358 18.9549 13.9141 18.8867 14.0837L21.5793 16.7763C21.7489 16.708 21.9272 16.667 22.1085 16.6561C22.824 16.6134 23.4973 16.3106 24.0044 15.8035L28.1493 11.6586L27.3203 10.8296Z" fill="#FBE4C8"/>
<path d="M27.6502 24.5049L19.8079 16.6625L10.6454 7.5H9.9293L9.78309 7.87152C9.39719 8.85215 9.23231 9.85512 9.30633 10.7719C9.39071 11.8169 9.7877 12.7216 10.4545 13.3884L17.6072 20.5411L18.5506 19.5977L25.1633 26.9919C25.8211 27.6497 26.9534 27.6888 27.6502 26.9919C28.3359 26.3062 28.3359 25.1906 27.6502 24.5049Z" fill="#FBE4C8"/>
<path d="M14.292 18.8848L8.69 24.4868C8.00437 25.1724 8.00437 26.288 8.69 26.9737C9.34133 27.625 10.4681 27.6825 11.1769 26.9737L16.7789 21.3716L14.292 18.8848Z" fill="#FBE4C8"/>
</g>
<defs>
<clipPath id="clip0_4772_17666">
<rect width="20" height="20" fill="white" transform="translate(8.16797 7.5)"/>
</clipPath>
</defs>
</svg>
