<svg width="40" height="40" viewBox="0 0 40 40" fill="none" xmlns="http://www.w3.org/2000/svg">
<path d="M36.25 30.75C36.25 35.1875 28.9375 38.75 20 38.75C11 38.75 3.75 35.1875 3.75 30.75C3.75 26.3125 11 22.75 20 22.75C28.9375 22.75 36.25 26.3125 36.25 30.75Z" fill="#94989B"/>
<path d="M38.75 27.5C38.75 32.875 30.375 37.3125 20 37.3125C9.625 37.3125 1.25 32.9375 1.25 27.5C1.25 22.125 9.625 17.6875 20 17.6875C30.375 17.6875 38.75 22.0625 38.75 27.5Z" fill="#C7D7D7"/>
<path d="M35.4375 26.6875C35.4375 30.3125 28.5 33.1875 20 33.1875C11.5 33.1875 4.5625 30.25 4.5625 26.6875C4.5625 23.0625 11.5 20.1875 20 20.1875C28.5 20.125 35.4375 23.0625 35.4375 26.6875Z" fill="#94989B"/>
<path d="M31.3747 31.5626C29.6247 31.8751 29.3122 33.8751 24.2497 33.3751C21.8747 33.1251 20.4997 33.8751 17.5622 34.1251C14.6247 34.3751 -1.12532 31.3751 5.24968 24.1876C11.5622 17.0001 35.4997 20.3126 35.7497 24.9376C35.9997 29.6251 32.7497 31.3126 31.3747 31.5626Z" fill="#D3976E"/>
<path d="M5.25021 12.125C4.68771 12.5 5.43771 12.5 5.43771 12.5C5.43771 12.5 11.8127 10.3125 12.1252 10.9375C12.4377 11.5625 5.68771 13.4375 5.81271 14.1875C5.93771 14.9375 12.6877 12.0625 12.8127 12.6875C13.0002 13.3125 6.68771 15.6875 6.68771 15.6875C6.68771 15.6875 6.18771 16.1875 6.81271 16.125C14.9377 15.125 17.5002 12.6875 17.5002 12.6875C17.5002 12.6875 18.0627 12.25 17.8752 11.6875C17.8752 11.625 35.6252 5.3125 38.0002 4.4375C39.1877 4 37.9377 0.875004 36.8127 1.3125C34.3752 2.125 16.6252 8.5625 16.6252 8.5625C16.4377 8 15.6877 8 15.6877 8C15.6877 8 12.1252 7.75 5.25021 12.125Z" fill="#839391"/>
<path d="M36.0008 24.875C35.8133 23.5625 34.3133 22.375 31.5633 21.375C29.9383 20.0625 27.6258 19.6875 26.1883 19.5625C24.8758 19.5 23.5633 19.5625 22.3133 19.8125C21.7508 19.875 21.1258 19.25 20.6258 19.4375C17.9383 18.6875 15.5008 20.0625 13.7508 20.0625C11.8758 20.0625 4.37578 21.3125 4.43828 25.1875C4.12578 25.5625 2.50078 26.875 5.00078 27.875C4.37578 28.5625 4.25078 29.25 4.31328 29.6875C4.43828 30.6875 5.25078 31.625 6.81328 32.375C9.12578 33.5 11.1258 33.875 12.6883 33.875C15.0008 33.75 16.1258 36.125 21.2508 35.625L20.6258 34.375C20.5633 34.375 18.7508 34.375 16.8758 33.125C16.9383 33.125 28.0008 32.375 29.3758 32.1875C32.5008 31.875 34.7508 29.3125 35.0008 28.125C35.1883 27.25 36.1258 25.5625 36.0008 24.875ZM16.4383 21.125C16.6258 21.125 12.7508 22.75 10.6258 23.75L11.0008 22.125H11.0633C12.5633 21.625 14.3758 21.3125 16.4383 21.125ZM27.3133 31.0625C27.3133 31.0625 26.5633 30.25 26.6258 30.125C27.4383 30 28.1883 29.875 28.9383 29.6875C28.6258 30.3125 28.0633 30.75 27.3133 31.0625ZM27.2508 31.0625C27.1883 31.0625 27.1883 31.0625 27.1258 31.125C27.1258 31.125 27.1883 31.125 27.2508 31.0625ZM15.6258 27.6875C15.8758 27.75 21.0633 28.9375 23.0008 29.25C21.8758 30 18.1258 30.625 15.6258 27.6875ZM10.0008 31.875C10.0008 31.875 8.68828 30.0625 8.75078 29.375C9.18828 29.75 10.6883 30.1875 11.2508 30.3125C11.3133 30.4375 12.2508 32.125 12.5008 32.5C11.2508 32.5 10.0008 31.875 10.0008 31.875ZM10.6883 27.375C10.6883 27.8125 10.6883 28.25 10.8133 28.75C9.68828 28.5 8.75078 28.0625 8.12578 27.5C8.75078 27.3125 9.62578 27.25 10.6883 27.375ZM24.3758 20.625C28.1258 21.875 30.5008 23.625 30.6258 23.75C30.5008 24 30.7508 24.75 30.6258 25C30.1258 24.75 26.2508 21.875 23.7508 21.25C24.1883 21.1875 24.3758 20.625 24.3758 20.625ZM30.0008 27.5C30.3133 27.25 31.8758 25.625 31.8758 25.625H33.1258C33.5008 25.625 31.4383 27.875 31.2508 28.125C31.0633 28.0625 30.1883 27.5625 30.0008 27.5ZM29.4383 30.125C29.5633 29.9375 29.6258 29.75 29.6883 29.5625C30.0008 29.5 30.3133 29.375 30.6258 29.3125C30.8133 29.625 31.0008 29.875 31.2508 30.1875C30.7508 30.4375 30.1258 30.6875 29.4383 30.9375C29.1258 31.0625 28.8133 31.125 28.5633 31.25C28.8758 30.875 29.2508 30.5625 29.4383 30.125ZM7.43828 25.125C7.25078 25.375 7.12578 25.5625 7.06328 25.8125C6.68828 25.75 6.31328 25.625 5.93828 25.5C5.68828 25.375 5.56328 25.3125 5.37578 25.1875C5.87578 24.6875 6.56328 24.1875 7.43828 23.6875V25.125ZM6.87578 29.375C6.93828 29.125 7.12578 28.875 7.43828 28.625C7.25078 29.5 7.56328 30.4375 8.25078 31.3125C8.18828 31.3125 8.12578 31.25 8.12578 31.25C7.18828 30.625 6.81328 29.875 6.87578 29.375ZM11.8758 27.375C12.4383 27.5 15.5633 29.25 16.1883 29.4375C15.6258 29.4375 13.1258 29.375 11.8758 28.75C11.7508 28.3125 11.7508 27.875 11.8758 27.375ZM25.1883 30.25C25.1258 30.5 25.1883 30.6875 25.3133 30.875C25.5633 31.25 24.8133 31.375 23.8758 30.875C23.5633 30.6875 23.4383 30.5 23.3758 30.3125C23.9383 30.375 24.5633 30.3125 25.1883 30.25ZM32.3758 29.5C32.2508 29.3125 32.0633 29.125 31.8758 28.875C32.0633 28.8125 32.2508 28.75 32.4383 28.625C32.7508 28.6875 32.9383 28.8125 33.0633 28.875C32.9383 29.0625 32.6883 29.25 32.3758 29.5ZM13.4383 31.375C13.0008 31.1875 12.8133 30.75 12.5633 30.4375C16.8758 30 22.0008 31.625 22.5008 31.875C22.5633 31.9375 16.2508 32.5 13.4383 31.375ZM34.4383 26.75C35.0008 25 32.5633 23.1875 32.5008 23.125C33.1258 23.125 35.6258 24.375 34.4383 26.75Z" fill="#FFE299"/>
<path d="M8.125 21.875V12.6875C8.125 12.4375 7.75 12.25 7.375 12.25C7 12.25 6.625 12.4375 6.625 12.6875V22.5L8.125 21.875Z" fill="#FFE299"/>
<path d="M10 26.25V9.5C10 9.25 9.625 9.0625 9.25 9.0625C8.875 9.0625 8.5 9.25 8.5 9.5V26.25H10Z" fill="#FFE299"/>
<path d="M11.8125 16.8125C12.25 16.8125 12.5625 16.625 12.5625 16.375V8.375C12.5625 8.125 12.1875 7.9375 11.8125 7.9375C11.4375 7.9375 11.0625 8.125 11.0625 8.375V16.3125C11.0625 16.625 11.4375 16.8125 11.8125 16.8125Z" fill="#FFE299"/>
<path d="M9.50056 25.6875C10.1256 26.9375 11.0631 26.1875 11.5006 27.5625C11.9381 28.9375 13.0006 27.4375 13.9381 28.25C14.8756 29.0625 17.3756 28.625 18.4381 28.8125C19.5006 29 19.6256 28.25 20.8756 28.625C22.1256 29.0625 21.9381 27.4375 24.8756 28.5C25.8131 28.875 25.5631 27.4375 27.1256 27.8125C28.6881 28.1875 27.5631 26.625 29.5006 26.75C31.4381 26.875 28.0006 22.8125 26.3131 23.3125C24.6256 23.8125 22.5631 20.5 20.0631 20.5C14.8756 20.625 8.62556 24.125 9.50056 25.6875Z" fill="#EC6430"/>
<path d="M13.4375 22.8125L13 23.75L13.4375 24.6875L13.875 23.75L13.4375 22.8125Z" fill="#8CC63E"/>
<path d="M15.3125 21.25L15 21.875L15.3125 22.5L15.625 21.875L15.3125 21.25Z" fill="#8CC63E"/>
<path d="M17.1875 23.125L16.875 23.75L17.1875 24.375L17.5 23.75L17.1875 23.125Z" fill="#8CC63E"/>
<path d="M17.8125 20.3125L17.375 21.25L17.8125 22.1875L18.25 21.25L17.8125 20.3125Z" fill="#8CC63E"/>
<path d="M19.6875 22.1875L19.25 23.125L19.6875 24.0625L20.125 23.125L19.6875 22.1875Z" fill="#8CC63E"/>
<path d="M21.5625 20.625L21.25 21.25L21.5625 21.875L21.875 21.25L21.5625 20.625Z" fill="#8CC63E"/>
<path d="M23.4375 23.125L23.125 23.75L23.4375 24.375L23.75 23.75L23.4375 23.125Z" fill="#8CC63E"/>
<path d="M25.3125 22.8125L24.875 23.75L25.3125 24.6875L25.75 23.75L25.3125 22.8125Z" fill="#8CC63E"/>
<path d="M27.8125 24.375L27.5 25L27.8125 25.625L28.125 25L27.8125 24.375Z" fill="#8CC63E"/>
<path d="M21.5625 24.375L21.25 25L21.5625 25.625L21.875 25L21.5625 24.375Z" fill="#8CC63E"/>
<path d="M19.0625 25.625L18.75 26.25L19.0625 26.875L19.375 26.25L19.0625 25.625Z" fill="#8CC63E"/>
<path d="M15.3125 24.375L15 25L15.3125 25.625L15.625 25L15.3125 24.375Z" fill="#8CC63E"/>
<path d="M11.5625 23.75L11.25 24.375L11.5625 25L11.875 24.375L11.5625 23.75Z" fill="#8CC63E"/>
</svg>
